<?xml version="1.0" encoding="UTF-8"?>
<!-- Generator: visioncortex VTracer 0.6.12 -->
<svg version="1.1" xmlns="http://www.w3.org/2000/svg" width="414" height="174">
<path d="M0 0 C10.89 0 21.78 0 33 0 C33 0.33 33 0.66 33 1 C24.42 1 15.84 1 7 1 C7.66 3.97 8.32 6.94 9 10 C8.34 10 7.68 10 7 10 C6.954 25.015 6.919 40.031 6.898 55.046 C6.895 56.818 6.893 58.589 6.89 60.36 C6.89 60.713 6.889 61.065 6.889 61.429 C6.88 67.144 6.864 72.86 6.846 78.576 C6.827 84.437 6.816 90.299 6.812 96.16 C6.809 99.454 6.803 102.747 6.789 106.041 C6.775 109.138 6.771 112.235 6.774 115.332 C6.773 116.471 6.769 117.611 6.762 118.75 C6.752 120.3 6.754 121.85 6.759 123.4 C6.754 123.856 6.748 124.312 6.742 124.782 C6.754 126.034 6.754 126.034 7 128 C7.66 128.33 8.32 128.66 9 129 C8.34 131.64 7.68 134.28 7 137 C18.55 137 30.1 137 42 137 C42 137.33 42 137.66 42 138 C40.35 138 38.7 138 37 138 C37 147.24 37 156.48 37 166 C38.32 165.67 38.32 165.67 45 164 C45 164.66 45 165.32 45 166 C102.09 166 159.18 166 218 166 C218 165.34 218 164.68 218 164 C220.97 164.66 223.94 165.32 227 166 C227 156.76 227 147.52 227 138 C227.33 138 227.66 138 228 138 C228 149.55 228 161.1 228 173 C227.67 173 227.34 173 227 173 C227 171.02 227 169.04 227 167 C226.257 167.33 225.515 167.66 224.75 168 C222.348 168.972 220.569 169.19 218 169 C218 168.34 218 167.68 218 167 C160.91 167 103.82 167 45 167 C45 167.66 45 168.32 45 169 C44.506 168.87 44.013 168.74 43.504 168.605 C41.595 168.194 39.952 167.868 38 168 C37.172 169.329 37.13 170.317 37.07 171.871 C37.047 172.244 37.024 172.616 37 173 C36.67 173 36.34 173 36 173 C36 161.45 36 149.9 36 138 C24.12 138 12.24 138 0 138 C0 137.67 0 137.34 0 137 C0.854 136.973 1.708 136.954 2.562 136.938 C3.953 136.719 3.953 136.719 5 136 C5.164 133.232 4.619 130.69 4 128 C4.66 128 5.32 128 6 128 C6 89.06 6 50.12 6 10 C5.34 10 4.68 10 4 10 C4.13 9.434 4.26 8.868 4.395 8.285 C4.822 6.137 5.13 4.197 5 2 C3.662 1.082 2.737 1.066 1.129 1.035 C0.756 1.024 0.384 1.012 0 1 C0 0.67 0 0.34 0 0 Z " fill="#000000" transform="translate(8,1)"/>
<path d="M0 0 C0.659 -0.003 1.318 -0.006 1.997 -0.01 C2.736 -0.008 3.474 -0.007 4.213 -0.005 C4.992 -0.007 5.771 -0.009 6.55 -0.012 C8.699 -0.018 10.847 -0.018 12.996 -0.017 C15.311 -0.017 17.625 -0.022 19.939 -0.027 C24.476 -0.035 29.013 -0.038 33.551 -0.038 C37.237 -0.039 40.924 -0.041 44.61 -0.044 C55.053 -0.053 65.496 -0.058 75.939 -0.057 C76.22 -0.057 76.22 -0.057 77.646 -0.057 C78.21 -0.057 78.774 -0.057 79.355 -0.057 C88.501 -0.056 97.646 -0.066 106.792 -0.08 C116.173 -0.094 125.555 -0.101 134.936 -0.1 C140.207 -0.1 145.477 -0.103 150.748 -0.113 C155.235 -0.122 159.722 -0.125 164.209 -0.118 C166.5 -0.115 168.791 -0.115 171.082 -0.123 C173.177 -0.131 175.273 -0.13 177.368 -0.121 C178.128 -0.119 178.888 -0.121 179.647 -0.127 C180.677 -0.134 181.706 -0.129 182.736 -0.12 C183.309 -0.12 183.882 -0.121 184.472 -0.121 C186.276 0.188 186.866 0.657 187.931 2.129 C188.182 3.215 188.182 3.215 188.183 4.415 C188.188 4.874 188.193 5.333 188.198 5.806 C188.194 6.309 188.189 6.811 188.185 7.329 C188.186 7.597 188.186 7.597 188.194 8.951 C188.202 10.75 188.196 12.55 188.19 14.349 C188.192 15.637 188.196 16.925 188.2 18.212 C188.209 21.35 188.207 24.488 188.201 27.626 C188.197 30.176 188.196 32.726 188.198 35.276 C188.199 35.639 188.199 36.002 188.199 36.376 C188.2 37.112 188.201 37.849 188.201 38.586 C188.207 45.498 188.201 52.409 188.19 59.321 C188.181 65.254 188.182 71.186 188.192 77.118 C188.202 84.005 188.207 90.892 188.2 97.778 C188.2 98.513 188.199 99.247 188.198 99.981 C188.198 100.162 188.198 100.162 188.198 101.076 C188.196 103.623 188.199 106.17 188.203 108.718 C188.21 112.145 188.205 115.573 188.194 119 C188.191 120.261 188.192 121.521 188.196 122.781 C188.202 124.497 188.195 126.212 188.185 127.928 C188.187 128.18 188.187 128.18 188.198 129.451 C188.16 132.797 188.16 132.797 187.03 134.43 C185.438 135.442 183.83 135.553 181.993 135.691 C178.242 136.018 178.242 136.018 176.501 136.636 C174.856 137.152 173.549 137.258 171.829 137.261 C171.257 137.263 170.685 137.264 170.095 137.265 C169.505 137.261 168.914 137.258 168.306 137.254 C167.708 137.258 167.11 137.261 166.493 137.265 C165.924 137.264 165.354 137.263 164.767 137.261 C164.246 137.26 163.726 137.259 163.19 137.258 C161.931 137.129 161.931 137.129 160.931 136.129 C159.925 136.003 159.925 136.003 158.661 136.003 C158.18 136 157.699 135.998 157.204 135.995 C156.938 135.996 156.938 135.996 155.592 136.002 C155.03 136 154.467 135.999 153.888 135.997 C151.991 135.993 150.094 135.996 148.197 135.999 C146.842 135.998 145.487 135.996 144.132 135.994 C140.826 135.989 137.52 135.99 134.214 135.993 C131.526 135.996 128.839 135.996 126.152 135.995 C125.77 135.995 125.388 135.995 124.994 135.994 C124.218 135.994 123.442 135.994 122.666 135.993 C115.382 135.991 108.098 135.994 100.814 135.999 C94.563 136.004 88.313 136.003 82.062 135.998 C74.808 135.993 67.553 135.991 60.299 135.994 C59.525 135.994 58.751 135.995 57.978 135.995 C57.787 135.995 57.787 135.995 56.824 135.995 C54.141 135.996 51.458 135.995 48.775 135.992 C45.503 135.99 42.232 135.99 38.96 135.996 C37.291 135.998 35.622 135.999 33.953 135.996 C32.143 135.993 30.334 135.997 28.524 136.002 C27.996 135.999 27.469 135.997 26.925 135.995 C24.374 136.009 22.331 136.165 19.931 137.129 C18.413 137.258 18.413 137.258 16.829 137.261 C16.257 137.263 15.685 137.264 15.095 137.265 C14.505 137.261 13.914 137.258 13.306 137.254 C12.708 137.258 12.11 137.261 11.493 137.265 C10.924 137.264 10.354 137.263 9.767 137.261 C9.246 137.26 8.726 137.259 8.19 137.258 C6.931 137.129 6.931 137.129 5.931 136.129 C5.007 135.939 5.007 135.939 3.9 135.847 C3.501 135.81 3.103 135.773 2.693 135.734 C2.276 135.699 1.86 135.664 1.431 135.629 C0.608 135.56 -0.215 135.487 -1.038 135.41 C-1.403 135.38 -1.769 135.349 -2.145 135.318 C-3.069 135.129 -3.069 135.129 -4.069 134.129 C-4.167 132.718 -4.167 132.718 -4.132 131.066 C-4.123 130.518 -4.114 129.97 -4.104 129.406 C-4.093 128.984 -4.081 128.563 -4.069 128.129 C-3.684 128.187 -3.298 128.245 -2.901 128.305 C5.241 129.381 5.241 129.381 8.931 128.129 C11.461 125.362 10.616 120.477 10.498 117.021 C10.505 115.829 10.517 114.637 10.534 113.445 C10.561 110.531 10.529 107.623 10.47 104.71 C10.406 101.323 10.414 97.938 10.427 94.551 C10.448 88.51 10.412 82.472 10.339 76.432 C10.268 70.563 10.225 64.695 10.218 58.825 C10.217 58.464 10.217 58.103 10.216 57.73 C10.214 55.917 10.213 54.104 10.212 52.291 C10.201 37.236 10.093 22.183 9.931 7.129 C5.311 7.129 0.691 7.129 -4.069 7.129 C-4.069 0.005 -4.069 0.005 0 0 Z M-3.069 1.129 C-3.069 2.779 -3.069 4.429 -3.069 6.129 C1.221 6.129 5.511 6.129 9.931 6.129 C9.931 4.479 9.931 2.829 9.931 1.129 C5.641 1.129 1.351 1.129 -3.069 1.129 Z M10.931 1.129 C10.931 2.779 10.931 4.429 10.931 6.129 C12.077 6.156 13.222 6.175 14.368 6.191 C15.006 6.203 15.645 6.214 16.302 6.226 C17.931 6.129 17.931 6.129 18.931 5.129 C20.112 5.001 20.112 5.001 21.628 4.998 C22.204 4.995 22.78 4.991 23.374 4.987 C23.693 4.988 23.693 4.988 25.308 4.991 C25.989 4.988 26.67 4.985 27.351 4.982 C29.228 4.974 31.105 4.973 32.982 4.972 C35.004 4.97 37.026 4.963 39.047 4.956 C42.553 4.944 46.058 4.936 49.563 4.929 C55.1 4.919 60.637 4.899 66.174 4.876 C68.066 4.869 69.959 4.861 71.852 4.854 C72.325 4.852 72.798 4.85 73.285 4.848 C78.672 4.827 84.06 4.809 89.447 4.791 C89.94 4.789 90.432 4.787 90.94 4.786 C98.928 4.759 106.917 4.741 114.906 4.724 C123.1 4.707 131.293 4.678 139.487 4.639 C144.546 4.616 149.604 4.602 154.663 4.6 C158.127 4.598 161.591 4.585 165.055 4.563 C167.056 4.551 169.057 4.544 171.058 4.55 C172.888 4.555 174.717 4.547 176.547 4.528 C177.527 4.521 178.507 4.529 179.488 4.537 C179.776 4.533 179.776 4.533 181.234 4.511 C181.734 4.509 182.234 4.508 182.75 4.506 C183.14 4.382 183.529 4.257 183.931 4.129 C184.261 3.139 184.591 2.149 184.931 1.129 C127.511 1.129 70.091 1.129 10.931 1.129 Z M19.268 6.011 C18.922 7.158 18.806 8.063 18.805 9.259 C18.802 9.683 18.8 10.107 18.797 10.544 C18.799 11.008 18.802 11.472 18.804 11.949 C18.802 12.444 18.801 12.938 18.799 13.448 C18.795 15.109 18.798 16.77 18.801 18.431 C18.8 19.621 18.798 20.81 18.796 21.999 C18.792 24.896 18.793 27.794 18.796 30.691 C18.798 33.045 18.798 35.4 18.797 37.755 C18.797 38.09 18.797 38.424 18.797 38.77 C18.796 39.45 18.796 40.131 18.796 40.811 C18.793 47.193 18.796 53.576 18.801 59.958 C18.806 65.436 18.805 70.913 18.8 76.391 C18.795 82.75 18.793 89.109 18.796 95.469 C18.796 96.147 18.797 96.825 18.797 97.503 C18.797 97.836 18.797 98.17 18.798 98.514 C18.798 100.866 18.797 103.218 18.795 105.57 C18.792 108.735 18.794 111.899 18.799 115.064 C18.801 116.228 18.8 117.391 18.798 118.555 C18.795 120.139 18.799 121.724 18.804 123.308 C18.802 123.772 18.799 124.235 18.797 124.713 C18.8 125.137 18.802 125.561 18.805 125.998 C18.805 126.364 18.805 126.73 18.806 127.107 C18.96 128.364 19.165 129.109 19.931 130.129 C21.126 130.377 21.126 130.377 22.662 130.375 C23.246 130.379 23.829 130.383 24.431 130.387 C25.078 130.381 25.725 130.375 26.391 130.369 C27.081 130.37 27.77 130.372 28.46 130.374 C30.362 130.379 32.264 130.371 34.166 130.361 C36.214 130.352 38.262 130.355 40.311 130.357 C43.862 130.358 47.413 130.351 50.964 130.34 C56.099 130.324 61.233 130.319 66.368 130.316 C74.697 130.312 83.027 130.298 91.356 130.28 C99.449 130.261 107.543 130.247 115.636 130.238 C116.139 130.238 116.643 130.237 117.162 130.237 C121.101 130.233 125.039 130.229 128.978 130.225 C148.296 130.206 167.613 130.166 186.931 130.129 C186.931 88.879 186.931 47.629 186.931 5.129 C145.062 5.048 145.062 5.048 127.616 5.031 C123.623 5.027 119.629 5.023 115.636 5.019 C115.135 5.018 114.635 5.018 114.119 5.017 C106.028 5.008 97.937 4.993 89.847 4.974 C81.549 4.956 73.251 4.945 64.953 4.94 C59.83 4.938 54.706 4.929 49.582 4.913 C46.073 4.902 42.563 4.899 39.054 4.902 C37.027 4.903 34.999 4.901 32.972 4.89 C31.118 4.881 29.265 4.88 27.411 4.887 C26.418 4.888 25.424 4.879 24.431 4.87 C23.847 4.874 23.263 4.878 22.662 4.883 C22.155 4.882 21.648 4.881 21.126 4.88 C19.931 5.129 19.931 5.129 19.268 6.011 Z M10.931 7.129 C10.931 47.389 10.931 87.649 10.931 129.129 C13.241 129.129 15.551 129.129 17.931 129.129 C17.931 126.489 17.931 123.849 17.931 121.129 C16.611 121.129 15.291 121.129 13.931 121.129 C14.243 120.129 14.243 120.129 14.931 119.129 C15.921 119.129 16.911 119.129 17.931 119.129 C17.931 107.579 17.931 96.029 17.931 84.129 C16.941 84.129 15.951 84.129 14.931 84.129 C14.243 83.129 14.243 83.129 13.931 82.129 C15.251 82.129 16.571 82.129 17.931 82.129 C17.931 72.559 17.931 62.989 17.931 53.129 C16.941 53.129 15.951 53.129 14.931 53.129 C14.931 52.469 14.931 51.809 14.931 51.129 C15.921 51.129 16.911 51.129 17.931 51.129 C18 46.73 18.054 42.332 18.086 37.933 C18.102 35.891 18.123 33.848 18.157 31.806 C18.19 29.835 18.208 27.864 18.215 25.893 C18.221 25.141 18.232 24.389 18.248 23.637 C18.27 22.583 18.273 21.531 18.271 20.477 C18.278 19.877 18.285 19.278 18.292 18.66 C17.931 17.129 17.931 17.129 16.41 15.919 C15.922 15.658 15.434 15.397 14.931 15.129 C15.422 15.037 15.913 14.946 16.419 14.851 C16.669 14.732 16.669 14.732 17.931 14.129 C18.224 12.5 18.224 12.5 18.118 10.566 C18.087 9.999 18.087 9.999 17.931 7.129 C15.621 7.129 13.311 7.129 10.931 7.129 Z M-3.069 130.129 C-3.069 130.789 -3.069 131.449 -3.069 132.129 C1.221 132.129 5.511 132.129 9.931 132.129 C9.931 131.469 9.931 130.809 9.931 130.129 C5.641 130.129 1.351 130.129 -3.069 130.129 Z M10.931 130.129 C10.931 130.789 10.931 131.449 10.931 132.129 C68.021 132.129 125.111 132.129 183.931 132.129 C183.931 131.799 183.931 131.469 183.931 131.129 C182.822 130.998 182.822 130.998 181.229 130.99 C180.626 130.984 180.024 130.979 179.403 130.973 C178.723 130.972 178.043 130.971 177.363 130.97 C176.65 130.966 175.936 130.961 175.222 130.955 C173.25 130.942 171.277 130.934 169.305 130.928 C167.182 130.92 165.059 130.906 162.937 130.893 C159.255 130.872 155.574 130.853 151.892 130.838 C146.569 130.815 141.246 130.787 135.923 130.757 C127.288 130.71 118.652 130.666 110.017 130.626 C101.626 130.587 93.235 130.545 84.844 130.501 C84.328 130.498 83.811 130.496 83.279 130.493 C80.686 130.479 78.094 130.465 75.502 130.452 C53.978 130.338 32.455 130.231 10.931 130.129 Z M-3.069 133.129 C-3.069 133.459 -3.069 133.789 -3.069 134.129 C1.221 134.129 5.511 134.129 9.931 134.129 C9.931 133.799 9.931 133.469 9.931 133.129 C5.641 133.129 1.351 133.129 -3.069 133.129 Z M10.931 133.129 C10.931 133.459 10.931 133.789 10.931 134.129 C68.681 134.129 126.431 134.129 185.931 134.129 C185.931 133.799 185.931 133.469 185.931 133.129 C128.181 133.129 70.431 133.129 10.931 133.129 Z " fill="#000000" transform="translate(48.0691442489624,0.8713655471801758)"/>
<path d="M0 0 C1.062 0.438 1.062 0.438 2 1 C1.01 1 0.02 1 -1 1 C-0.67 0.67 -0.34 0.34 0 0 Z " fill="#000000" transform="translate(213,17)"/>
<path d="M0 0 C0.33 0 0.66 0 1 0 C1 2.31 1 4.62 1 7 C0.67 7 0.34 7 0 7 C0 4.69 0 2.38 0 0 Z " fill="#000000" transform="translate(88,20)"/>
<path d="M0 0 C0.33 0 0.66 0 1 0 C1 2.31 1 4.62 1 7 C0.67 7 0.34 7 0 7 C0 4.69 0 2.38 0 0 Z " fill="#000000" transform="translate(225,20)"/>
<path d="M0 0 C0.33 0 0.66 0 1 0 C1 1.65 1 3.3 1 5 C0.67 5 0.34 5 0 5 C0 3.35 0 1.7 0 0 Z " fill="#000000" transform="translate(73,21)"/>
<path d="M0 0 C0.33 0 0.66 0 1 0 C1 1.65 1 3.3 1 5 C0.67 5 0.34 5 0 5 C0 3.35 0 1.7 0 0 Z " fill="#000000" transform="translate(210,21)"/>
<path d="M0 0 C2.64 0 5.28 0 8 0 C8 0.33 8 0.66 8 1 C5.36 1 2.72 1 0 1 C0 0.67 0 0.34 0 0 Z " fill="#000000" transform="translate(3,40)"/>
<path d="M0 0 C0.495 0.33 0.495 0.33 3 2 C2.01 2 1.02 2 0 2 C0 1.34 0 0.68 0 0 Z " fill="#000000" transform="translate(1,44)"/>
<path d="M0 0 C2.31 0 4.62 0 7 0 C6.67 0.165 6.67 0.165 5 1 C4.805 1.973 4.805 1.973 4.875 3.062 C4.896 3.382 4.896 3.382 5 5 C3.35 5 1.7 5 0 5 C0.33 4.34 0.66 3.68 1 3 C2.563 3.375 2.563 3.375 4 4 C4 3.01 4 2.02 4 1 C2.68 1.33 1.36 1.66 0 2 C0 1.34 0 0.68 0 0 Z " fill="#000000" transform="translate(2,50)"/>
<path d="M0 0 C5.429 0.857 5.429 0.857 7 3 C6.662 2.893 6.325 2.786 5.977 2.676 C4.614 2.309 3.413 2.027 2 2 C0.688 3.438 0.688 3.438 0 5 C0 3.35 0 1.7 0 0 Z " fill="#000000" transform="translate(2,61)"/>
<path d="M0 0 C0.33 1.32 0.66 2.64 1 4 C-1.97 4 -4.94 4 -8 4 C-8 3.01 -8 2.02 -8 1 C-6.558 0.451 -5.561 0.224 -4.062 0.062 C-3.689 -0.005 -3.316 -0.073 -2.932 -0.143 C-1.848 -0.277 -1.848 -0.277 0 0 Z " fill="#000000" transform="translate(10,68)"/>
<path d="M0 0 C3.96 0 7.92 0 12 0 C9.994 2.006 9.724 2.254 7.078 2.273 C6.9 2.27 6.9 2.27 6 2.25 C5.644 2.258 5.288 2.265 4.922 2.273 C2.276 2.254 2.006 2.006 0 0 Z " fill="#000000" transform="translate(1,75)"/>
<path d="M0 0 C-0.309 0.082 -0.619 0.165 -0.938 0.25 C-2.639 1.451 -2.613 3.001 -3 5 C-3.562 4.125 -3.562 4.125 -4 3 C-3.67 2.34 -3.34 1.68 -3 1 C-4.65 1.33 -6.3 1.66 -8 2 C-8 1.34 -8 0.68 -8 0 C-5.351 -1.204 -2.624 -1.243 0 0 Z " fill="#000000" transform="translate(10,80)"/>
<path d="M0 0 C1.447 -0.405 2.479 -0.196 4 0 C3.625 1 3.625 1 3 2 C2.34 2 1.68 2 1 2 C0.876 2.495 0.753 2.99 0.625 3.5 C0.419 3.995 0.213 4.49 0 5 C-1.41 5.296 -2.544 5.141 -4 5 C-3.67 3.68 -3.34 2.36 -3 1 C-3 1.99 -3 2.98 -3 4 C-2.34 4 -1.68 4 -1 4 C-0.727 3.125 -0.727 3.125 -0.625 2 C-0.418 0.891 -0.418 0.891 0 0 Z " fill="#000000" transform="translate(6,86)"/>
<path d="M0 0 C-0.309 0.082 -0.619 0.165 -0.938 0.25 C-2.639 1.451 -2.613 3.001 -3 5 C-3.562 4.125 -3.562 4.125 -4 3 C-3.67 2.34 -3.34 1.68 -3 1 C-4.65 1.33 -6.3 1.66 -8 2 C-8 1.34 -8 0.68 -8 0 C-5.351 -1.204 -2.624 -1.243 0 0 Z " fill="#000000" transform="translate(10,94)"/>
<path d="M0 0 C0.66 0.33 1.32 0.66 2 1 C1.505 1.33 1.505 1.33 -1 3 C-0.67 2.01 -0.34 1.02 0 0 Z " fill="#000000" transform="translate(75,108)"/>
<path d="M0 0 C0.33 0 0.66 0 1 0 C1 2.31 1 4.62 1 7 C0.67 7 0.34 7 0 7 C0 4.69 0 2.38 0 0 Z " fill="#000000" transform="translate(88,110)"/>
<path d="M0 0 C0.33 0 0.66 0 1 0 C1 2.31 1 4.62 1 7 C0.67 7 0.34 7 0 7 C0 4.69 0 2.38 0 0 Z " fill="#000000" transform="translate(225,110)"/>
<path d="M0 0 C1 4 1 4 1 4 Z " fill="#000000" transform="translate(73,112)"/>
<path d="M0 0 C1 4 1 4 1 4 Z " fill="#000000" transform="translate(210,112)"/>
<path d="M0 0 C0 0.99 0 1.98 0 3 C-0.66 2.67 -1.32 2.34 -2 2 C-1.34 1.34 -0.68 0.68 0 0 Z " fill="#000000" transform="translate(222,117)"/>
<path d="M0 0 C4 1 4 1 4 1 Z " fill="#000000" transform="translate(78,120)"/>
<path d="M0 0 C1.65 0 3.3 0 5 0 C5 0.33 5 0.66 5 1 C3.35 1 1.7 1 0 1 C0 0.67 0 0.34 0 0 Z " fill="#000000" transform="translate(215,120)"/>
<path d="M0 0 C1 4 1 4 1 4 Z " fill="#000000" transform="translate(162,154)"/>
<path d="M0 0 C2.685 -0.433 2.685 -0.433 4 0 C5.236 2.296 5.167 4.834 4.562 7.312 C4.377 7.869 4.191 8.426 4 9 C2.68 8.67 1.36 8.34 0 8 C0.99 7.34 1.98 6.68 3 6 C2.01 5.34 1.02 4.68 0 4 C0.99 4 1.98 4 3 4 C3.188 2.562 3.188 2.562 3 1 C1.5 0.312 1.5 0.312 0 0 Z " fill="#000000" transform="translate(119,155)"/>
<path d="M0 0 C0.973 0.121 0.973 0.121 2.062 0.438 C2.425 0.539 2.787 0.641 3.16 0.746 C3.437 0.83 3.714 0.914 4 1 C3.763 1.062 3.763 1.062 2.562 1.375 C1 2 1 2 0.312 3.062 C0.209 3.372 0.106 3.681 0 4 C1.32 4 2.64 4 4 4 C3.67 5.32 3.34 6.64 3 8 C3 7.01 3 6.02 3 5 C1.562 4.812 1.562 4.812 0 5 C-0.598 6.512 -0.598 6.512 -1 8 C-1.027 6.854 -1.046 5.708 -1.062 4.562 C-1.074 3.924 -1.086 3.286 -1.098 2.629 C-1 1 -1 1 0 0 Z " fill="#000000" transform="translate(127,155)"/>
<path d="M0 0 C1.48 0.07 2.748 0.167 4 1 C4.122 2.783 3.652 4.35 3 6 C2.67 6.33 2.34 6.66 2 7 C2.99 7.66 3.98 8.32 5 9 C3.02 9 1.04 9 -1 9 C-0.219 7.763 0.562 6.526 1.344 5.289 C2 4 2 4 2 2 C1 0.875 1 0.875 0 0 Z " fill="#000000" transform="translate(138,155)"/>
<path d="M0 0 C0.66 0.165 0.66 0.165 4 1 C3.505 1.33 3.505 1.33 1 3 C1.516 3.083 2.031 3.165 2.562 3.25 C2.8 3.374 2.8 3.374 4 4 C3.965 5.429 3.511 6.675 3 8 C3.083 7.526 3.165 7.051 3.25 6.562 C3.167 6.047 3.085 5.531 3 5 C2.074 4.719 2.074 4.719 0.938 4.562 C-0.176 4.383 -0.176 4.383 -1 4 C-1.066 2.542 -0.568 1.327 0 0 Z " fill="#000000" transform="translate(145,155)"/>
<path d="M0 0 C0.082 0.495 0.165 0.99 0.25 1.5 C0.498 1.995 0.745 2.49 1 3 C2.412 3.294 3.542 3.141 5 3 C4.874 4.759 4.695 6.37 4 8 C2.865 8.668 2.227 8.713 0.926 8.566 C0 8 0 8 -0.52 6.715 C-1.362 2.142 -1.362 2.142 0 0 Z M0 4 C0.33 4.99 0.66 5.98 1 7 C2.5 6.625 2.5 6.625 4 6 C4 5.34 4 4.68 4 4 C2.68 4 1.36 4 0 4 Z " fill="#000000" transform="translate(112,156)"/>
<path d="M0 0 C0.33 0 0.66 0 1 0 C1 2.31 1 4.62 1 7 C0.67 7 0.34 7 0 7 C0 4.69 0 2.38 0 0 Z " fill="#000000" transform="translate(155,156)"/>
<path d="M0 0 C2 2 2 2 2.012 3.289 C1.905 3.73 1.798 4.171 1.688 4.625 C1.588 5.071 1.489 5.517 1.387 5.977 C1.259 6.314 1.131 6.652 1 7 C0.67 7 0.34 7 0 7 C0 4.69 0 2.38 0 0 Z " fill="#000000" transform="translate(159,156)"/>
<path d="M0 0 C0.33 0 0.66 0 1 0 C1.243 1.509 1.423 2.981 1.562 4.5 C1.606 4.929 1.649 5.359 1.693 5.801 C1.8 6.867 1.901 7.933 2 9 C1.008 8.227 1.008 8.227 0 7 C-0.195 5.273 -0.195 5.273 -0.125 3.375 C-0.107 2.743 -0.089 2.112 -0.07 1.461 C-0.047 0.979 -0.024 0.497 0 0 Z " fill="#000000" transform="translate(133,157)"/>
<path d="M0 0 C0.33 0 0.66 0 1 0 C1.054 1.124 1.093 2.25 1.125 3.375 C1.148 4.001 1.171 4.628 1.195 5.273 C1 7 1 7 -0.008 8.227 C-0.335 8.482 -0.663 8.737 -1 9 C-0.86 7.499 -0.713 6 -0.562 4.5 C-0.523 4.071 -0.484 3.641 -0.443 3.199 C-0.333 2.128 -0.171 1.063 0 0 Z " fill="#000000" transform="translate(169,157)"/>
<path d="M0 0 C4 1 4 1 4 1 Z " fill="#000000" transform="translate(144,163)"/>
</svg>
